<svg width="1563" height="1500" viewBox="0 0 1563 1500" fill="none" xmlns="http://www.w3.org/2000/svg">
<g filter="url(#filter0_d_395_26)">
<g filter="url(#filter1_d_395_26)">
<ellipse cx="773.5" cy="742" rx="759.5" ry="728" fill="#EAEAEA"/>
<path d="M773.5 1475C1195.52 1475 1538 1147.02 1538 742C1538 336.978 1195.52 9 773.5 9C351.48 9 9 336.978 9 742C9 1147.02 351.48 1475 773.5 1475Z" stroke="white" stroke-width="10"/>
</g>
<path d="M586.479 1145V493.595H329.587V342.212H1029.16V493.595H772.267V1145H586.479Z" fill="#008236"/>
<path d="M1006.43 1153.74C959.558 1153.74 918.293 1144.57 882.631 1126.23C847.479 1107.89 820.223 1082.93 800.864 1051.34C781.505 1019.25 771.826 982.822 771.826 942.066C771.826 900.8 781.251 864.374 800.1 832.789C819.459 800.693 845.696 775.73 878.81 757.899C911.925 739.559 949.369 730.389 991.144 730.389C1031.39 730.389 1067.56 739.05 1099.66 756.371C1132.26 773.183 1157.99 797.636 1176.84 829.732C1195.69 861.318 1205.11 899.272 1205.11 943.594C1205.11 948.179 1204.86 953.528 1204.35 959.642C1203.84 965.246 1203.33 970.595 1202.82 975.689H868.876V906.149H1140.16L1094.31 926.782C1094.31 905.385 1089.98 886.79 1081.32 870.997C1072.66 855.204 1060.68 842.978 1045.4 834.317C1030.12 825.147 1012.29 820.562 991.908 820.562C971.53 820.562 953.445 825.147 937.652 834.317C922.368 842.978 910.396 855.459 901.736 871.762C893.075 887.554 888.745 906.404 888.745 928.311V946.651C888.745 969.067 893.584 988.935 903.264 1006.26C913.453 1023.07 927.463 1036.06 945.294 1045.23C963.634 1053.89 985.031 1058.22 1009.48 1058.22C1031.39 1058.22 1050.5 1054.91 1066.8 1048.29C1083.61 1041.66 1098.89 1031.73 1112.65 1018.48L1176.07 1087.26C1157.22 1108.66 1133.54 1125.21 1105.01 1136.93C1076.48 1148.14 1043.62 1153.74 1006.43 1153.74Z" fill="#008236"/>
</g>
<defs>
<filter id="filter0_d_395_26" x="4" y="4" width="1559" height="1496" filterUnits="userSpaceOnUse" color-interpolation-filters="sRGB">
<feFlood flood-opacity="0" result="BackgroundImageFix"/>
<feColorMatrix in="SourceAlpha" type="matrix" values="0 0 0 0 0 0 0 0 0 0 0 0 0 0 0 0 0 0 127 0" result="hardAlpha"/>
<feOffset dx="10" dy="10"/>
<feGaussianBlur stdDeviation="5"/>
<feComposite in2="hardAlpha" operator="out"/>
<feColorMatrix type="matrix" values="0 0 0 0 0 0 0 0 0 0 0 0 0 0 0 0 0 0 0.5 0"/>
<feBlend mode="normal" in2="BackgroundImageFix" result="effect1_dropShadow_395_26"/>
<feBlend mode="normal" in="SourceGraphic" in2="effect1_dropShadow_395_26" result="shape"/>
</filter>
<filter id="filter1_d_395_26" x="0" y="0" width="1555" height="1492" filterUnits="userSpaceOnUse" color-interpolation-filters="sRGB">
<feFlood flood-opacity="0" result="BackgroundImageFix"/>
<feColorMatrix in="SourceAlpha" type="matrix" values="0 0 0 0 0 0 0 0 0 0 0 0 0 0 0 0 0 0 127 0" result="hardAlpha"/>
<feMorphology radius="4" operator="dilate" in="SourceAlpha" result="effect1_dropShadow_395_26"/>
<feOffset dx="4" dy="4"/>
<feGaussianBlur stdDeviation="2"/>
<feComposite in2="hardAlpha" operator="out"/>
<feColorMatrix type="matrix" values="0 0 0 0 0 0 0 0 0 0 0 0 0 0 0 0 0 0 0.5 0"/>
<feBlend mode="normal" in2="BackgroundImageFix" result="effect1_dropShadow_395_26"/>
<feBlend mode="normal" in="SourceGraphic" in2="effect1_dropShadow_395_26" result="shape"/>
</filter>
</defs>
</svg>
